<svg xmlns="http://www.w3.org/2000/svg" width="17" height="25" viewBox="0 0 17 25">
  <defs>
    <style>
      .cls-1 {
        fill: #f40000;
        fill-rule: evenodd;
      }
    </style>
  </defs>
  <path class="cls-1" d="M1271.5,1324a8.426,8.426,0,0,0-8.5,8.33,8.194,8.194,0,0,0,1.02,3.96l7.02,12.44a0.527,0.527,0,0,0,.92,0l7.02-12.44a8.194,8.194,0,0,0,1.02-3.96A8.426,8.426,0,0,0,1271.5,1324Zm0,12.5a4.166,4.166,0,1,1,4.25-4.17A4.217,4.217,0,0,1,1271.5,1336.5Z" transform="translate(-1263 -1324)"/>
</svg>
