<svg xmlns="http://www.w3.org/2000/svg" width="23" height="19" viewBox="0 0 23 19">
  <defs>
    <style>
      .cls-1 {
        fill: #f40000;
        fill-rule: evenodd;
      }
    </style>
  </defs>
  <path class="cls-1" d="M1271.62,1440.48c3.88,0.04,6.3-.21,6.63,4.1h4.73c0-6.67-5.81-7.57-11.48-7.57s-11.48.9-11.48,7.57h4.68c0.37-4.39,3.08-4.14,6.92-4.1h0Zm0,0-9.26,6.25c1.15,0,2.11.07,2.32-1.07a2.728,2.728,0,0,0,.05-0.53h-4.74c0,1.69,1.06,1.6,2.37,1.6h0Zm0,0,15.92-1.6h-0.04a2.728,2.728,0,0,0,.05.53c0.22,1.05,1.18.98,2.33,0.98,1.31,0,2.37.09,2.37-1.51h-4.71Zm0,0-2.31-1.15v-0.67c0-.3-0.34-0.32-0.77-0.32h-0.69c-0.43,0-.77.02-0.77,0.32v1.03h-4.93v-1.03c0-.3-0.34-0.32-0.77-0.32h-0.69c-0.43,0-.77.02-0.77,0.32v1.25a50.8,50.8,0,0,0-4.93,6.75l0.01,4.02a0.67,0.67,0,0,0,.67.67h17.89a0.679,0.679,0,0,0,.68-0.67v-4.04a51.173,51.173,0,0,0-4.93-6.73v-0.58Zm-7.4,7.87a0.649,0.649,0,0,1-.65-0.65,0.65,0.65,0,1,1,1.3,0,0.649,0.649,0,0,1-.65.65h0Zm0-2.24a0.655,0.655,0,1,1,.65-0.66,0.651,0.651,0,0,1-.65.66h0Zm0-2.25a0.65,0.65,0,1,1,.65-0.65,0.649,0.649,0,0,1-.65.65h0Zm2.69,4.49a0.649,0.649,0,0,1-.65-0.65,0.65,0.65,0,1,1,1.3,0,0.649,0.649,0,0,1-.65.65h0Zm0-2.24a0.655,0.655,0,1,1,.65-0.66,0.651,0.651,0,0,1-.65.66h0Zm0-2.25a0.65,0.65,0,1,1,.65-0.65,0.649,0.649,0,0,1-.65.65h0Zm2.68,4.49a0.649,0.649,0,0,1-.65-0.65,0.65,0.65,0,1,1,1.3,0,0.649,0.649,0,0,1-.65.65h0Zm0-2.24a0.655,0.655,0,1,1,.65-0.66,0.651,0.651,0,0,1-.65.66h0Zm0-2.25a0.65,0.65,0,1,1,.65-0.65,0.649,0.649,0,0,1-.65.65h0Zm0,0" transform="translate(-1260 -1437)"/>
</svg>
